<?xml version="1.0" encoding="iso-8859-1"?>
<!-- Generator: Adobe Illustrator 18.0.0, SVG Export Plug-In . SVG Version: 6.00 Build 0)  -->
<!DOCTYPE svg PUBLIC "-//W3C//DTD SVG 1.1//EN" "http://www.w3.org/Graphics/SVG/1.1/DTD/svg11.dtd">
<svg version="1.1" id="Capa_1" xmlns="http://www.w3.org/2000/svg" xmlns:xlink="http://www.w3.org/1999/xlink" x="0px" y="0px"
	 viewBox="0 0 250.189 250.189" style="enable-background:new 0 0 250.189 250.189;" xml:space="preserve">
<g>
	<path d="M214.408,119.658c0-4.143-3.358-7.5-7.5-7.5s-7.5,3.357-7.5,7.5c0,40.976-33.337,74.313-74.313,74.313
		c-40.976,0-74.313-33.338-74.313-74.313c0-4.143-3.358-7.5-7.5-7.5s-7.5,3.357-7.5,7.5c0,46.722,36.062,85.173,81.813,88.995
		v26.536H84.188c-4.142,0-7.5,3.357-7.5,7.5c0,4.143,3.358,7.5,7.5,7.5h81.813c4.142,0,7.5-3.357,7.5-7.5c0-4.143-3.358-7.5-7.5-7.5
		h-33.407v-26.536C178.345,204.831,214.408,166.38,214.408,119.658z"/>
	<path d="M125.094,168.064c26.692,0,48.407-21.715,48.407-48.406V48.406C173.501,21.715,151.786,0,125.094,0
		C98.403,0,76.688,21.715,76.688,48.406v71.252C76.688,146.35,98.403,168.064,125.094,168.064z M91.688,48.406
		c0-18.42,14.986-33.406,33.406-33.406c18.421,0,33.407,14.986,33.407,33.406v71.252c0,18.42-14.986,33.406-33.407,33.406
		c-18.42,0-33.406-14.986-33.406-33.406V48.406z"/>
</g>
<g>
</g>
<g>
</g>
<g>
</g>
<g>
</g>
<g>
</g>
<g>
</g>
<g>
</g>
<g>
</g>
<g>
</g>
<g>
</g>
<g>
</g>
<g>
</g>
<g>
</g>
<g>
</g>
<g>
</g>
</svg>
